Coordinates
version=1
nRows=14
nColumns=24
inDegrees=yes

Units are S.I. units (second, meters, Newtons, ...)
Angles are in degrees.

endheader
time	pelvis_tilt	pelvis_list	pelvis_rotation	pelvis_tx	pelvis_ty	pelvis_tz	hip_flexion_r	hip_adduction_r	hip_rotation_r	knee_angle_r	ankle_angle_r	subtalar_angle_r	mtp_angle_r	hip_flexion_l	hip_adduction_l	hip_rotation_l	knee_angle_l	ankle_angle_l	subtalar_angle_l	mtp_angle_l	lumbar_extension	lumbar_bending	lumbar_rotation
      0.76650000	     -0.19410524	      0.56468137	      1.87560570	     -0.43041754	      1.07627082	      0.30594687	      9.99291367	      1.44808103	     -2.51137581	    -20.03010875	     10.99773722	     -3.18697165	      8.05759618	     16.74403437	     -4.01080347	     -5.70738165	    -69.20436858	      5.25371467	      5.61749698	      6.42243747	     -9.41767961	      2.48979084	     -1.99838321
      0.77066667	     -0.13941869	      0.75932527	      1.84915726	     -0.42488443	      1.07747381	      0.30614368	      9.41070845	      1.27190394	     -2.43762043	    -19.63816159	     11.06938697	     -3.16218125	      8.01982335	     17.14083128	     -3.80320809	     -5.83056864	    -68.72531709	      5.58338959	      6.03274402	      6.40327559	     -9.49083616	      2.24886900	     -1.87136888
      0.77483333	     -0.08923244	      0.95852900	      1.81626607	     -0.41935821	      1.07864721	      0.30632661	      8.83656249	      1.08840858	     -2.36147143	    -19.25026246	     11.14208156	     -3.14800633	      7.99537517	     17.52441425	     -3.58641421	     -5.95687065	    -68.17596102	      5.88658100	      6.47621299	      6.40240313	     -9.55316578	      2.00850953	     -1.81062614
      0.77900000	     -0.04153861	      1.16581842	      1.77500009	     -0.41383303	      1.07978342	      0.30650482	      8.26712652	      0.89487185	     -2.28245948	    -18.86355724	     11.19774349	     -3.13442305	      7.96842940	     17.89120906	     -3.35786585	     -6.08826451	    -67.55970425	      6.18630641	      6.93024183	      6.40853802	     -9.61770401	      1.75531749	     -1.72536582
      0.78316667	      0.02514080	      1.36892652	      1.72880886	     -0.40831272	      1.08090762	      0.30667383	      7.67622061	      0.70522589	     -2.20165757	    -18.47069823	     11.25294310	     -3.12236545	      7.94081970	     18.21947575	     -3.13592543	     -6.22729483	    -66.88136818	      6.47305954	      7.39038161	      6.42170730	     -9.70407612	      1.50649331	     -1.63495725
      0.78733333	      0.06730088	      1.56956569	      1.67506213	     -0.40278778	      1.08193932	      0.30683221	      7.11596790	      0.51578709	     -2.11591706	    -18.08445286	     11.30753079	     -3.11595091	      7.91375144	     18.55841366	     -2.91531738	     -6.37331048	    -66.14761150	      6.74516968	      7.84814016	      6.44078946	     -9.76146343	      1.26261204	     -1.54652963
      0.79150000	      0.11230306	      1.75895868	      1.61829120	     -0.39726792	      1.08292124	      0.30697968	      6.55321058	      0.33813411	     -2.02219851	    -17.69558509	     11.35221767	     -3.12008531	      7.88239695	     18.87957248	     -2.70543793	     -6.51658476	    -65.36151241	      7.01021812	      8.29836080	      6.46663102	     -9.82549268	      1.03086269	     -1.44225589
      0.79566667	      0.17449872	      1.95107303	      1.55099089	     -0.39176151	      1.08388960	      0.30713698	      5.97505360	      0.15710736	     -1.92614008	    -17.30788840	     11.40104272	     -3.12492761	      7.85188980	     19.16256161	     -2.49482818	     -6.66990696	    -64.51417409	      7.25755038	      8.73220703	      6.49540088	     -9.90826403	      0.79699581	     -1.34677907
      0.79983333	      0.23863884	      2.13767055	      1.48026138	     -0.38624595	      1.08481777	      0.30727435	      5.39555409	     -0.02045318	     -1.83086960	    -16.92148499	     11.45137784	     -3.13293377	      7.82322743	     19.42460767	     -2.28776613	     -6.82326484	    -63.60975217	      7.48237196	      9.12949472	      6.52466337	     -9.98667703	      0.57160094	     -1.25323063
      0.80400000	      0.27980851	      2.31596439	      1.40426357	     -0.38074421	      1.08562471	      0.30741048	      4.84725526	     -0.19013500	     -1.72278209	    -16.54302946	     11.49891231	     -3.14343504	      7.78846275	     19.70026733	     -2.08768032	     -6.97407596	    -62.66490417	      7.70255726	      9.49756923	      6.56000648	    -10.05057214	      0.34991271	     -1.13666195
      0.80816667	      0.29362957	      2.50330813	      1.32546271	     -0.37523469	      1.08634516	      0.30752157	      4.34110979	     -0.37633813	     -1.63649077	    -16.19075072	     11.53942893	     -3.14591839	      7.76698001	     19.98498705	     -1.87000441	     -7.12126375	    -61.65866410	      7.89866603	      9.81245995	      6.58324235	    -10.06831290	      0.12739640	     -1.07288971
      0.81233333	      0.37190269	      2.65796573	      1.24151153	     -0.36976290	      1.08710494	      0.30765219	      3.74851275	     -0.52018891	     -1.50976692	    -15.79334641	     11.59330695	     -3.17690116	      7.72300940	     20.18925056	     -1.69726795	     -7.27004999	    -60.61722090	      8.08946338	     10.10659552	      6.62480144	    -10.18370208	     -0.06899393	     -0.91134590
      0.81650000	      0.38552673	      2.82267384	      1.15112777	     -0.36425248	      1.08768953	      0.30776648	      3.24411882	     -0.68209494	     -1.40363669	    -15.43829167	     11.66149027	     -3.19670750	      7.68410673	     20.44279889	     -1.50965610	     -7.42635718	    -59.52330482	      8.25077522	     10.34525123	      6.66022906	    -10.19803622	     -0.27374080	     -0.80411345
      0.82066667	      0.40574483	      2.99492225	      1.06068926	     -0.35878062	      1.08823318	      0.30786316	      2.74444739	     -0.85756644	     -1.31223445	    -15.10316612	     11.71012934	     -3.20025284	      7.65679853	     20.67158266	     -1.30400346	     -7.56304060	    -58.37448771	      8.40642252	     10.53888505	      6.68387901	    -10.23431320	     -0.47776135	     -0.73022807
